<svg xmlns="http://www.w3.org/2000/svg" xmlns:xlink="http://www.w3.org/1999/xlink" width="1080" zoomAndPan="magnify" viewBox="0 0 810 809.999993" height="1080" preserveAspectRatio="xMidYMid meet" version="1.0"><defs><clipPath id="3a5efc671d"><path d="M 190.6875 190.6875 L 619.3125 190.6875 L 619.3125 619.3125 L 190.6875 619.3125 Z M 190.6875 190.6875 " clip-rule="nonzero"/></clipPath><clipPath id="9ecc3ed48a"><path d="M 405 190.6875 C 286.636719 190.6875 190.6875 286.636719 190.6875 405 C 190.6875 523.363281 286.636719 619.3125 405 619.3125 C 523.363281 619.3125 619.3125 523.363281 619.3125 405 C 619.3125 286.636719 523.363281 190.6875 405 190.6875 Z M 405 190.6875 " clip-rule="nonzero"/></clipPath><clipPath id="b9a44ae12e"><path d="M 235 276 L 571 276 L 571 531 L 235 531 Z M 235 276 " clip-rule="nonzero"/></clipPath><clipPath id="db02d0767d"><path d="M 243.238281 269.667969 L 577.355469 516.867188 L 562.175781 537.386719 L 228.058594 290.1875 Z M 243.238281 269.667969 " clip-rule="nonzero"/></clipPath><clipPath id="f04d6ada4e"><path d="M 243.207031 269.457031 L 577.828125 517.03125 L 562.214844 538.132812 L 227.59375 290.5625 Z M 243.207031 269.457031 " clip-rule="nonzero"/></clipPath><clipPath id="4429dc37fa"><path d="M 243.054688 268.402344 L 578.882812 516.867188 L 562.824219 538.570312 L 226.996094 290.109375 Z M 243.054688 268.402344 " clip-rule="nonzero"/></clipPath><clipPath id="f3b8267528"><path d="M 226 268 L 579 268 L 579 539 L 226 539 Z M 226 268 " clip-rule="nonzero"/></clipPath><clipPath id="c301e41ef4"><path d="M 243.050781 268.410156 L 578.878906 516.875 L 562.820312 538.578125 L 226.992188 290.113281 Z M 243.050781 268.410156 " clip-rule="nonzero"/></clipPath><clipPath id="df485c05c3"><path d="M 243.050781 268.410156 L 578.613281 516.679688 L 562.367188 538.636719 L 226.800781 290.367188 Z M 243.050781 268.410156 " clip-rule="nonzero"/></clipPath></defs><g clip-path="url(#3a5efc671d)"><g clip-path="url(#9ecc3ed48a)"><path stroke-linecap="butt" transform="matrix(0.75, 0, 0, 0.75, 190.687494, 190.68751)" fill="none" stroke-linejoin="miter" d="M 285.750023 -0.0000138757 C 127.932306 -0.0000138757 0.00000812431 127.932284 0.00000812431 285.750001 C 0.00000812431 443.567717 127.932306 571.500015 285.750023 571.500015 C 443.567739 571.500015 571.500037 443.567717 571.500037 285.750001 C 571.500037 127.932284 443.567739 -0.0000138757 285.750023 -0.0000138757 Z M 285.750023 -0.0000138757 " stroke="#000000" stroke-width="78" stroke-opacity="1" stroke-miterlimit="4"/></g></g><g clip-path="url(#b9a44ae12e)"><g clip-path="url(#db02d0767d)"><g clip-path="url(#f04d6ada4e)"><g clip-path="url(#4429dc37fa)"><path fill="#000000" d="M 564.808594 506.453125 L 257.132812 278.816406 C 251.0625 274.328125 242.546875 275.546875 238.113281 281.539062 C 233.679688 287.53125 235.003906 296.03125 241.074219 300.523438 L 548.75 528.15625 C 554.816406 532.648438 563.332031 531.429688 567.765625 525.433594 C 572.199219 519.441406 570.875 510.941406 564.808594 506.453125 Z M 564.808594 506.453125 " fill-opacity="1" fill-rule="nonzero"/></g></g></g></g><g clip-path="url(#f3b8267528)"><g clip-path="url(#c301e41ef4)"><g clip-path="url(#df485c05c3)"><path stroke-linecap="butt" transform="matrix(0.602923, 0.446075, -0.446075, 0.602923, 243.049518, 268.40945)" fill="none" stroke-linejoin="miter" d="M 0.0019147 -0.000244717 L -0.0034482 36.421331 L 556.561567 36.420682 L 556.562743 0.00220399 L 0.0019147 -0.000244717 " stroke="#000000" stroke-width="106" stroke-opacity="1" stroke-miterlimit="4"/></g></g></g><path fill="#000000" d="M 352.085938 302.277344 C 352.085938 300.617188 352.164062 298.964844 352.328125 297.316406 C 352.492188 295.664062 352.734375 294.027344 353.058594 292.398438 C 353.378906 290.773438 353.78125 289.167969 354.265625 287.582031 C 354.746094 285.996094 355.304688 284.433594 355.9375 282.902344 C 356.574219 281.371094 357.28125 279.875 358.0625 278.414062 C 358.84375 276.949219 359.695312 275.53125 360.617188 274.152344 C 361.539062 272.773438 362.523438 271.441406 363.574219 270.160156 C 364.628906 268.878906 365.738281 267.652344 366.914062 266.480469 C 368.085938 265.308594 369.3125 264.195312 370.59375 263.144531 C 371.875 262.089844 373.207031 261.105469 374.582031 260.183594 C 375.960938 259.261719 377.382812 258.410156 378.84375 257.628906 C 380.308594 256.847656 381.804688 256.140625 383.335938 255.503906 C 384.867188 254.871094 386.425781 254.3125 388.015625 253.832031 C 389.601562 253.351562 391.207031 252.949219 392.832031 252.625 C 394.460938 252.300781 396.097656 252.058594 397.746094 251.894531 C 399.398438 251.734375 401.050781 251.652344 402.710938 251.652344 C 404.367188 251.652344 406.023438 251.734375 407.671875 251.894531 C 409.320312 252.058594 410.960938 252.300781 412.585938 252.625 C 414.210938 252.949219 415.820312 253.351562 417.40625 253.832031 C 418.992188 254.3125 420.550781 254.871094 422.082031 255.503906 C 423.613281 256.140625 425.113281 256.847656 426.574219 257.628906 C 428.035156 258.410156 429.457031 259.261719 430.835938 260.183594 C 432.214844 261.105469 433.542969 262.089844 434.824219 263.144531 C 436.105469 264.195312 437.335938 265.308594 438.507812 266.480469 C 439.679688 267.652344 440.792969 268.878906 441.84375 270.160156 C 442.894531 271.441406 443.882812 272.773438 444.800781 274.152344 C 445.722656 275.53125 446.574219 276.949219 447.355469 278.414062 C 448.136719 279.875 448.847656 281.371094 449.480469 282.902344 C 450.117188 284.433594 450.671875 285.996094 451.15625 287.582031 C 451.636719 289.167969 452.039062 290.773438 452.363281 292.398438 C 452.683594 294.027344 452.929688 295.664062 453.089844 297.316406 C 453.253906 298.964844 453.335938 300.617188 453.335938 302.277344 L 453.335938 413.652344 C 453.335938 415.308594 453.253906 416.964844 453.089844 418.613281 C 452.929688 420.265625 452.683594 421.902344 452.363281 423.527344 C 452.039062 425.152344 451.636719 426.761719 451.15625 428.347656 C 450.671875 429.933594 450.117188 431.492188 449.480469 433.023438 C 448.847656 434.558594 448.136719 436.054688 447.355469 437.515625 C 446.574219 438.976562 445.722656 440.398438 444.800781 441.777344 C 443.882812 443.15625 442.894531 444.484375 441.84375 445.769531 C 440.792969 447.050781 439.679688 448.277344 438.507812 449.449219 C 437.335938 450.621094 436.105469 451.734375 434.824219 452.785156 C 433.542969 453.835938 432.214844 454.824219 430.835938 455.746094 C 429.457031 456.664062 428.035156 457.515625 426.574219 458.300781 C 425.113281 459.082031 423.613281 459.789062 422.082031 460.421875 C 420.550781 461.058594 418.992188 461.617188 417.40625 462.097656 C 415.820312 462.578125 414.210938 462.980469 412.585938 463.304688 C 410.960938 463.628906 409.320312 463.871094 407.671875 464.03125 C 406.023438 464.195312 404.367188 464.277344 402.710938 464.277344 C 401.050781 464.277344 399.398438 464.195312 397.746094 464.03125 C 396.097656 463.871094 394.460938 463.628906 392.832031 463.304688 C 391.207031 462.980469 389.601562 462.578125 388.015625 462.097656 C 386.425781 461.617188 384.867188 461.058594 383.335938 460.421875 C 381.804688 459.789062 380.308594 459.082031 378.84375 458.300781 C 377.382812 457.515625 375.960938 456.664062 374.582031 455.746094 C 373.207031 454.824219 371.875 453.835938 370.59375 452.785156 C 369.3125 451.734375 368.085938 450.621094 366.914062 449.449219 C 365.738281 448.277344 364.628906 447.050781 363.574219 445.769531 C 362.523438 444.484375 361.539062 443.15625 360.617188 441.777344 C 359.695312 440.398438 358.84375 438.976562 358.0625 437.515625 C 357.28125 436.054688 356.574219 434.558594 355.9375 433.023438 C 355.304688 431.492188 354.746094 429.933594 354.265625 428.347656 C 353.78125 426.761719 353.378906 425.152344 353.058594 423.527344 C 352.734375 421.902344 352.492188 420.265625 352.328125 418.613281 C 352.164062 416.964844 352.085938 415.308594 352.085938 413.652344 Z M 352.085938 302.277344 " fill-opacity="1" fill-rule="nonzero"/><path fill="#000000" d="M 321.710938 383.277344 C 322.375 383.277344 323.03125 383.339844 323.683594 383.472656 C 324.335938 383.601562 324.96875 383.792969 325.585938 384.046875 C 326.199219 384.300781 326.78125 384.613281 327.335938 384.984375 C 327.886719 385.351562 328.398438 385.773438 328.867188 386.242188 C 329.339844 386.710938 329.757812 387.222656 330.128906 387.777344 C 330.496094 388.328125 330.808594 388.914062 331.0625 389.527344 C 331.316406 390.140625 331.511719 390.773438 331.640625 391.425781 C 331.769531 392.078125 331.835938 392.738281 331.835938 393.402344 L 331.835938 413.652344 C 331.835938 414.8125 331.863281 415.972656 331.917969 417.128906 C 331.976562 418.289062 332.0625 419.445312 332.175781 420.597656 C 332.289062 421.753906 332.429688 422.902344 332.601562 424.050781 C 332.773438 425.199219 332.96875 426.339844 333.195312 427.480469 C 333.421875 428.617188 333.675781 429.746094 333.957031 430.871094 C 334.242188 431.996094 334.550781 433.117188 334.886719 434.226562 C 335.222656 435.335938 335.585938 436.4375 335.976562 437.527344 C 336.367188 438.621094 336.785156 439.703125 337.230469 440.773438 C 337.671875 441.847656 338.144531 442.90625 338.640625 443.953125 C 339.136719 445.003906 339.65625 446.039062 340.203125 447.0625 C 340.75 448.085938 341.320312 449.09375 341.917969 450.089844 C 342.515625 451.082031 343.132812 452.0625 343.777344 453.027344 C 344.421875 453.992188 345.089844 454.941406 345.78125 455.871094 C 346.472656 456.804688 347.1875 457.71875 347.921875 458.613281 C 348.65625 459.511719 349.414062 460.390625 350.195312 461.25 C 350.972656 462.109375 351.773438 462.949219 352.59375 463.769531 C 353.414062 464.589844 354.253906 465.386719 355.113281 466.167969 C 355.972656 466.945312 356.851562 467.703125 357.746094 468.4375 C 358.644531 469.175781 359.558594 469.886719 360.488281 470.578125 C 361.421875 471.269531 362.367188 471.9375 363.332031 472.582031 C 364.296875 473.226562 365.277344 473.847656 366.273438 474.441406 C 367.265625 475.039062 368.277344 475.609375 369.300781 476.15625 C 370.320312 476.703125 371.359375 477.226562 372.40625 477.722656 C 373.453125 478.21875 374.515625 478.6875 375.585938 479.132812 C 376.660156 479.574219 377.742188 479.992188 378.832031 480.382812 C 379.925781 480.773438 381.027344 481.136719 382.136719 481.476562 C 383.246094 481.8125 384.363281 482.121094 385.488281 482.402344 C 386.613281 482.683594 387.746094 482.9375 388.882812 483.164062 C 390.019531 483.390625 391.164062 483.589844 392.308594 483.757812 C 393.457031 483.929688 394.609375 484.070312 395.761719 484.183594 C 396.917969 484.300781 398.074219 484.382812 399.230469 484.441406 C 400.390625 484.5 401.550781 484.527344 402.710938 484.527344 C 403.871094 484.527344 405.027344 484.5 406.1875 484.441406 C 407.34375 484.382812 408.503906 484.300781 409.65625 484.183594 C 410.8125 484.070312 411.960938 483.929688 413.109375 483.757812 C 414.257812 483.589844 415.398438 483.390625 416.535156 483.164062 C 417.675781 482.9375 418.804688 482.683594 419.929688 482.402344 C 421.054688 482.121094 422.171875 481.8125 423.285156 481.476562 C 424.394531 481.136719 425.496094 480.773438 426.585938 480.382812 C 427.679688 479.992188 428.761719 479.574219 429.832031 479.132812 C 430.902344 478.6875 431.964844 478.21875 433.011719 477.722656 C 434.0625 477.226562 435.097656 476.703125 436.121094 476.15625 C 437.144531 475.609375 438.152344 475.039062 439.144531 474.441406 C 440.140625 473.847656 441.121094 473.226562 442.085938 472.582031 C 443.050781 471.9375 443.996094 471.269531 444.929688 470.578125 C 445.859375 469.886719 446.777344 469.175781 447.671875 468.4375 C 448.570312 467.703125 449.445312 466.945312 450.304688 466.167969 C 451.164062 465.386719 452.003906 464.589844 452.824219 463.769531 C 453.644531 462.949219 454.445312 462.109375 455.222656 461.25 C 456.003906 460.390625 456.761719 459.511719 457.496094 458.613281 C 458.234375 457.71875 458.945312 456.804688 459.636719 455.871094 C 460.328125 454.941406 460.996094 453.992188 461.640625 453.027344 C 462.285156 452.0625 462.90625 451.082031 463.5 450.089844 C 464.097656 449.09375 464.667969 448.085938 465.214844 447.0625 C 465.761719 446.039062 466.285156 445.003906 466.78125 443.953125 C 467.277344 442.90625 467.746094 441.847656 468.1875 440.773438 C 468.632812 439.703125 469.050781 438.621094 469.441406 437.527344 C 469.832031 436.4375 470.195312 435.335938 470.53125 434.226562 C 470.871094 433.117188 471.179688 431.996094 471.460938 430.871094 C 471.742188 429.746094 471.996094 428.617188 472.222656 427.480469 C 472.449219 426.339844 472.648438 425.199219 472.816406 424.050781 C 472.988281 422.902344 473.128906 421.753906 473.242188 420.597656 C 473.355469 419.445312 473.441406 418.289062 473.5 417.128906 C 473.554688 415.972656 473.585938 414.8125 473.585938 413.652344 L 473.585938 393.402344 C 473.585938 392.738281 473.648438 392.078125 473.777344 391.425781 C 473.910156 390.773438 474.101562 390.140625 474.355469 389.527344 C 474.609375 388.914062 474.921875 388.328125 475.289062 387.777344 C 475.660156 387.222656 476.078125 386.710938 476.550781 386.242188 C 477.019531 385.773438 477.53125 385.351562 478.085938 384.984375 C 478.636719 384.613281 479.21875 384.300781 479.835938 384.046875 C 480.449219 383.792969 481.082031 383.601562 481.734375 383.472656 C 482.386719 383.339844 483.042969 383.277344 483.710938 383.277344 C 484.375 383.277344 485.03125 383.339844 485.683594 383.472656 C 486.335938 383.601562 486.96875 383.792969 487.585938 384.046875 C 488.199219 384.300781 488.78125 384.613281 489.335938 384.984375 C 489.886719 385.351562 490.398438 385.773438 490.867188 386.242188 C 491.339844 386.710938 491.757812 387.222656 492.128906 387.777344 C 492.496094 388.328125 492.808594 388.914062 493.0625 389.527344 C 493.316406 390.140625 493.511719 390.773438 493.640625 391.425781 C 493.769531 392.078125 493.835938 392.738281 493.835938 393.402344 L 493.835938 413.652344 C 493.835938 415.039062 493.804688 416.421875 493.738281 417.804688 C 493.675781 419.191406 493.582031 420.574219 493.457031 421.953125 C 493.328125 423.332031 493.171875 424.707031 492.984375 426.082031 C 492.792969 427.453125 492.574219 428.820312 492.320312 430.183594 C 492.070312 431.546875 491.789062 432.902344 491.476562 434.253906 C 491.160156 435.601562 490.816406 436.945312 490.445312 438.277344 C 490.070312 439.613281 489.664062 440.9375 489.230469 442.253906 C 488.792969 443.570312 488.332031 444.875 487.835938 446.167969 C 487.339844 447.464844 486.816406 448.746094 486.265625 450.015625 C 485.710938 451.285156 485.128906 452.542969 484.519531 453.789062 C 483.910156 455.03125 483.273438 456.261719 482.605469 457.476562 C 481.9375 458.691406 481.246094 459.890625 480.523438 461.074219 C 479.804688 462.257812 479.054688 463.421875 478.28125 464.574219 C 477.507812 465.722656 476.707031 466.851562 475.882812 467.964844 C 475.054688 469.078125 474.203125 470.171875 473.328125 471.246094 C 472.453125 472.320312 471.554688 473.371094 470.628906 474.40625 C 469.707031 475.4375 468.757812 476.449219 467.789062 477.4375 C 466.820312 478.429688 465.828125 479.394531 464.8125 480.339844 C 463.800781 481.285156 462.765625 482.207031 461.710938 483.101562 C 460.652344 484 459.578125 484.871094 458.480469 485.722656 C 457.386719 486.570312 456.273438 487.390625 455.136719 488.1875 C 454.003906 488.984375 452.855469 489.757812 451.6875 490.503906 C 450.515625 491.246094 449.332031 491.964844 448.132812 492.65625 C 446.929688 493.347656 445.714844 494.007812 444.484375 494.644531 C 443.25 495.28125 442.003906 495.886719 440.746094 496.464844 C 439.488281 497.042969 438.214844 497.59375 436.933594 498.113281 C 435.648438 498.632812 434.351562 499.125 433.046875 499.585938 C 431.738281 500.046875 430.421875 500.480469 429.097656 500.882812 C 427.769531 501.28125 426.433594 501.652344 425.09375 501.992188 C 423.75 502.335938 422.398438 502.644531 421.042969 502.921875 C 419.683594 503.203125 418.320312 503.449219 416.953125 503.667969 C 415.585938 503.882812 414.210938 504.070312 412.835938 504.222656 L 412.835938 535.152344 L 453.335938 535.152344 C 454 535.152344 454.65625 535.214844 455.308594 535.347656 C 455.960938 535.476562 456.59375 535.667969 457.210938 535.921875 C 457.824219 536.175781 458.40625 536.488281 458.960938 536.859375 C 459.511719 537.226562 460.023438 537.648438 460.492188 538.117188 C 460.964844 538.585938 461.382812 539.097656 461.753906 539.652344 C 462.121094 540.203125 462.433594 540.789062 462.6875 541.402344 C 462.941406 542.015625 463.136719 542.648438 463.265625 543.300781 C 463.394531 543.953125 463.460938 544.613281 463.460938 545.277344 C 463.460938 545.941406 463.394531 546.601562 463.265625 547.25 C 463.136719 547.902344 462.941406 548.535156 462.6875 549.152344 C 462.433594 549.765625 462.121094 550.347656 461.753906 550.902344 C 461.382812 551.453125 460.964844 551.964844 460.492188 552.4375 C 460.023438 552.90625 459.511719 553.324219 458.960938 553.695312 C 458.40625 554.066406 457.824219 554.375 457.210938 554.628906 C 456.59375 554.886719 455.960938 555.078125 455.308594 555.207031 C 454.65625 555.335938 454 555.402344 453.335938 555.402344 L 352.085938 555.402344 C 351.417969 555.402344 350.761719 555.335938 350.109375 555.207031 C 349.457031 555.078125 348.824219 554.886719 348.210938 554.628906 C 347.59375 554.375 347.011719 554.066406 346.460938 553.695312 C 345.90625 553.324219 345.394531 552.90625 344.925781 552.4375 C 344.453125 551.964844 344.035156 551.453125 343.664062 550.902344 C 343.296875 550.347656 342.984375 549.765625 342.730469 549.152344 C 342.476562 548.535156 342.285156 547.902344 342.152344 547.25 C 342.023438 546.601562 341.960938 545.941406 341.960938 545.277344 C 341.960938 544.613281 342.023438 543.953125 342.152344 543.300781 C 342.285156 542.648438 342.476562 542.015625 342.730469 541.402344 C 342.984375 540.789062 343.296875 540.203125 343.664062 539.652344 C 344.035156 539.097656 344.453125 538.585938 344.925781 538.117188 C 345.394531 537.648438 345.90625 537.226562 346.460938 536.859375 C 347.011719 536.488281 347.59375 536.175781 348.210938 535.921875 C 348.824219 535.667969 349.457031 535.476562 350.109375 535.347656 C 350.761719 535.214844 351.417969 535.152344 352.085938 535.152344 L 392.585938 535.152344 L 392.585938 504.222656 C 391.207031 504.070312 389.835938 503.882812 388.464844 503.667969 C 387.097656 503.449219 385.734375 503.203125 384.378906 502.921875 C 383.019531 502.644531 381.667969 502.335938 380.328125 501.992188 C 378.984375 501.652344 377.648438 501.28125 376.320312 500.882812 C 374.996094 500.480469 373.679688 500.046875 372.371094 499.585938 C 371.066406 499.125 369.769531 498.632812 368.488281 498.113281 C 367.203125 497.59375 365.929688 497.042969 364.671875 496.464844 C 363.414062 495.886719 362.167969 495.28125 360.9375 494.644531 C 359.703125 494.007812 358.488281 493.347656 357.289062 492.65625 C 356.085938 491.964844 354.902344 491.246094 353.734375 490.5 C 352.5625 489.757812 351.414062 488.984375 350.28125 488.1875 C 349.148438 487.390625 348.03125 486.570312 346.9375 485.71875 C 345.839844 484.871094 344.765625 484 343.710938 483.101562 C 342.652344 482.203125 341.617188 481.285156 340.605469 480.339844 C 339.589844 479.394531 338.597656 478.429688 337.628906 477.4375 C 336.660156 476.449219 335.710938 475.4375 334.789062 474.40625 C 333.863281 473.371094 332.964844 472.320312 332.089844 471.246094 C 331.214844 470.171875 330.363281 469.078125 329.535156 467.964844 C 328.710938 466.851562 327.910156 465.722656 327.136719 464.570312 C 326.363281 463.421875 325.617188 462.257812 324.894531 461.074219 C 324.171875 459.890625 323.480469 458.691406 322.8125 457.476562 C 322.148438 456.261719 321.507812 455.03125 320.898438 453.789062 C 320.289062 452.542969 319.707031 451.285156 319.152344 450.015625 C 318.601562 448.746094 318.078125 447.460938 317.582031 446.167969 C 317.089844 444.875 316.625 443.570312 316.1875 442.253906 C 315.753906 440.9375 315.347656 439.613281 314.976562 438.277344 C 314.601562 436.945312 314.257812 435.601562 313.945312 434.253906 C 313.628906 432.902344 313.347656 431.546875 313.097656 430.183594 C 312.84375 428.820312 312.625 427.453125 312.4375 426.082031 C 312.246094 424.707031 312.089844 423.332031 311.964844 421.953125 C 311.835938 420.574219 311.742188 419.191406 311.679688 417.804688 C 311.617188 416.421875 311.585938 415.039062 311.585938 413.652344 L 311.585938 393.402344 C 311.585938 392.738281 311.648438 392.078125 311.777344 391.425781 C 311.910156 390.773438 312.101562 390.140625 312.355469 389.527344 C 312.609375 388.914062 312.921875 388.328125 313.289062 387.777344 C 313.660156 387.222656 314.078125 386.710938 314.550781 386.242188 C 315.019531 385.773438 315.53125 385.351562 316.085938 384.984375 C 316.636719 384.613281 317.21875 384.300781 317.835938 384.046875 C 318.449219 383.792969 319.082031 383.601562 319.734375 383.472656 C 320.386719 383.339844 321.042969 383.277344 321.710938 383.277344 Z M 321.710938 383.277344 " fill-opacity="1" fill-rule="nonzero"/></svg>